<svg width="24" height="24" viewBox="0 0 24 24" fill="none" xmlns="http://www.w3.org/2000/svg">
<path fill-rule="evenodd" clip-rule="evenodd" d="M10.8228 12.423C10.9734 12.423 11.5225 12.3195 11.6851 12.2869C11.7585 12.2722 11.7893 12.253 11.8451 12.2914L12.0786 12.4594C12.2415 12.5797 12.3824 12.7232 12.5299 12.8596C12.5444 12.8731 12.5417 12.8712 12.5557 12.8828C12.5753 12.8991 12.5883 12.9088 12.6067 12.9297L12.6521 12.9821C12.8718 13.2184 12.8488 13.3553 12.7973 13.6634C12.7833 13.7476 12.7678 13.8358 12.7504 13.9199C12.7001 14.1623 12.6143 14.392 12.526 14.6156C12.4071 14.917 12.172 15.3599 11.9558 15.592C11.8796 15.6739 11.8114 15.7497 11.7207 15.817C11.5323 15.9567 11.379 15.9665 11.0969 15.9665C10.8914 15.9665 10.6858 15.9665 10.4802 15.9665C10.4638 15.7688 10.1793 15.4927 10.3955 15.0105C10.4389 14.9136 10.4858 14.8209 10.5608 14.7451C10.6323 14.6729 10.7094 14.6134 10.8031 14.5666C10.877 14.5297 11.0282 14.4688 11.1361 14.4688C11.1361 14.6154 10.9751 14.852 10.8898 14.9665C10.7642 15.1351 10.8101 15.2565 10.9627 15.3861C11.1415 15.5379 11.3422 15.4587 11.4856 15.2882C11.7387 14.9871 11.8972 14.6129 12.0422 14.2493C12.1706 13.9273 12.1878 14.0148 12.0814 13.7487L11.9962 13.5401C11.9708 13.4702 11.9444 13.4012 11.915 13.3277C11.8878 13.2601 11.8643 13.1808 11.8311 13.118C11.5528 13.118 11.3456 13.1404 11.1178 13.2074C10.9624 13.2531 10.8091 13.306 10.6719 13.3879L10.1768 13.7347L9.8817 14.0367C9.74692 14.2035 9.62945 14.3809 9.52139 14.5671C9.28069 14.982 9.11963 15.621 9.11963 16.1426C9.11963 16.3444 9.2097 16.5454 9.28546 16.6718C9.40344 16.8687 9.44663 16.908 9.5866 17.0754L9.67221 17.166C9.67376 17.1673 9.67603 17.1691 9.67758 17.1704C9.84335 17.3086 9.98944 17.4551 10.2197 17.4897C10.4184 17.5195 11.0248 17.4973 11.1842 17.4828C11.5758 17.4472 12.0102 17.1696 12.3032 16.9084C12.4062 16.8166 12.49 16.7316 12.5872 16.6345C12.6137 16.608 12.6316 16.592 12.6533 16.5636C12.677 16.5325 12.6994 16.5165 12.7233 16.4867C12.8911 16.2772 13.0634 16.0685 13.1947 15.8324C13.2315 15.7662 13.2614 15.7197 13.2961 15.65C13.4702 15.3001 13.5916 15.0244 13.6722 14.6263C13.6767 14.604 13.6787 14.5968 13.6837 14.5693C13.707 14.4396 13.6826 14.4637 13.8902 14.5337C14.1301 14.6146 14.1534 14.6565 14.3149 14.8138C14.3789 14.8761 14.3642 14.8769 14.357 14.9587L14.3464 15.1635C14.3469 15.299 14.3282 15.4358 14.3105 15.5583C14.2975 15.6479 14.2877 15.7215 14.2685 15.8002C14.2495 15.8779 14.2293 15.9459 14.2077 16.0232C14.1887 16.0912 14.1555 16.1595 14.1286 16.228C14.0509 16.4253 13.875 16.6598 13.7277 16.8059C13.5856 16.9469 13.4255 17.0661 13.2629 17.1829C13.2316 17.2054 13.21 17.2228 13.1752 17.2421L11.9392 17.9736C11.9092 17.9909 11.8839 18.0056 11.8506 18.022C11.8143 18.0398 11.7936 18.0554 11.7561 18.0744C11.6258 18.1405 11.5152 18.2054 11.378 18.2639L10.9957 18.4396C10.3414 18.7306 9.02894 19.1576 8.32677 19.1575L7.43601 19.1673C7.3577 19.1673 7.27939 19.1673 7.20108 19.1673C7.11068 19.1673 7.04439 19.157 6.96639 19.1573C6.88795 19.1576 6.80933 19.158 6.7309 19.1578L6.2921 19.117C5.89326 19.0496 5.4522 18.8258 5.10578 18.6197C5.00285 18.5585 4.91528 18.4973 4.81662 18.4292C4.72235 18.3642 4.6327 18.2945 4.55102 18.2152L4.42849 18.1028C4.38636 18.0607 4.34597 18.0238 4.306 17.9806L4.19819 17.8535C4.15896 17.8085 4.12577 17.764 4.08914 17.7173C4.06358 17.6847 4.05666 17.689 4.0713 17.6441L4.17276 17.3821C4.29518 17.0118 4.33572 16.5656 4.52472 16.2952C4.59353 16.1967 4.93033 15.874 5.03782 15.849L5.04723 16.0158C5.04784 16.0762 5.05758 16.1183 5.05741 16.1916C5.05704 16.3578 5.04598 17.2163 5.05821 17.3067C5.06533 17.3593 5.16132 17.4958 5.19447 17.5424C5.21966 17.5778 5.24632 17.6159 5.27263 17.6502C5.28702 17.6689 5.29769 17.6802 5.31201 17.6989C5.3801 17.7881 5.4481 17.8732 5.54255 17.9382C5.6606 18.0195 5.89356 18.0025 6.04604 18.0025C6.31596 18.0025 6.65486 17.9333 6.83577 17.8427C6.96512 17.7779 7.08006 17.7019 7.19258 17.6122C7.21429 17.5949 7.23738 17.5784 7.25745 17.5596C7.28434 17.5344 7.29108 17.5279 7.32 17.5047C7.46639 17.3875 7.61648 17.2444 7.77009 17.1228C7.81648 17.086 7.85984 17.0488 7.90575 17.0137L8.30824 16.6723C8.40024 16.563 8.47225 16.4725 8.53249 16.3386C8.59788 16.1932 8.63206 16.0405 8.66528 15.8743C8.71599 15.6206 8.78071 15.3618 8.86627 15.1258C8.93998 14.9225 8.92577 14.9558 8.87681 14.7606C8.84399 14.6297 8.82017 14.4944 8.78872 14.369L8.6303 13.7052C8.62095 13.6692 8.60918 13.6432 8.60085 13.6074C8.5032 13.6074 8.28778 13.6597 8.20802 13.6844C8.1498 13.7025 8.08275 13.7221 8.03158 13.7429C7.86679 13.8102 7.72112 13.8911 7.57301 13.9891C7.47379 14.0548 7.28563 14.215 7.19363 14.3145L7.08362 14.4394C7.01503 14.529 6.94351 14.6111 6.88 14.7057C6.74569 14.9056 6.44758 15.5347 6.75465 15.7669C6.89162 15.8704 7.41643 15.8806 7.41643 15.7903C7.41643 15.6722 7.39716 15.5463 7.3714 15.434C7.35829 15.3768 7.30693 15.2051 7.32764 15.1638C7.37004 15.0792 7.5692 15.0286 7.66238 14.9986C7.77877 14.9612 7.76882 14.9506 7.76882 15.0757C7.76882 15.1794 7.77807 15.2946 7.76316 15.3931C7.71784 15.6925 7.84501 15.7543 7.52976 16.1581C7.32568 16.4195 7.0508 16.6419 6.6823 16.6419C6.53097 16.6419 6.3079 16.645 6.21003 16.5464C6.07571 16.4111 6.08585 16.2101 6.08516 16.0252C6.08485 15.9421 6.09546 15.9007 6.09505 15.8197C6.09473 15.7581 6.08976 15.6646 6.09765 15.607C6.10557 15.5492 6.09928 15.4671 6.1089 15.4029C6.11842 15.3393 6.1187 15.279 6.12713 15.2155C6.13481 15.1576 6.14946 15.0928 6.16347 15.0365C6.26589 14.6255 6.4871 14.2416 6.77271 13.9328L7.04736 13.669C7.06757 13.6519 7.08574 13.6382 7.10733 13.6213C7.49685 13.3172 7.92242 13.12 8.4109 12.9966C8.52762 12.9671 8.6561 12.9421 8.77704 12.932C8.77704 12.8602 8.79181 12.7668 8.80211 12.6928C8.81385 12.6084 8.81845 12.5421 8.83018 12.4566C8.85278 12.2916 8.86679 12.1375 8.88646 11.9745C8.90863 11.791 8.93184 11.7355 9.05851 11.6082L9.31776 11.3291C9.41217 11.2336 9.57031 11.1068 9.6606 11.0161L9.75974 10.9194C9.91162 10.7789 10.0545 10.6243 10.2131 10.4918C10.2874 10.4296 10.3502 10.3532 10.4313 10.2989L10.4866 10.3415C10.488 10.3429 10.4898 10.3452 10.4912 10.3467C10.5864 10.4565 10.6882 10.5616 10.778 10.6765L10.9432 10.8735C11.1614 11.131 11.1221 10.997 11.0357 11.4026L10.9246 11.9081C10.9106 11.9689 10.8994 12.0141 10.8873 12.0763C10.8671 12.1793 10.8228 12.3221 10.8228 12.423V12.423ZM8.10195 23.7483H8.0826C7.40227 23.746 6.70377 23.7607 6.03799 23.6879L5.30047 23.5934C5.21835 23.5821 5.15226 23.5603 5.07698 23.5428C5.07698 23.445 5.11829 23.3117 5.13815 23.2124L5.26564 22.5568C5.27422 22.5067 5.28759 22.4513 5.29799 22.3934L5.41716 21.7295C5.42866 21.6731 5.43901 21.616 5.44763 21.5642C5.46612 21.453 5.48735 21.3354 5.50489 21.2299C5.52326 21.1196 5.55661 21.0028 5.55661 20.8901L4.9296 20.5089C4.66728 20.3517 4.39414 20.2111 4.133 20.0525C3.89875 19.9103 3.65484 19.7812 3.42095 19.6389L3.26433 19.5508C3.23453 19.5327 3.21426 19.5232 3.18116 19.5067C3.01182 19.4224 3.03482 19.3928 2.9063 19.5221C2.87143 19.5571 2.84347 19.585 2.80849 19.62C2.79069 19.6379 2.77796 19.6526 2.75947 19.6689C2.73703 19.6886 2.72842 19.6908 2.70551 19.7128L2.51992 19.909C2.48528 19.944 2.45679 19.9717 2.42184 20.0067L2.08691 20.3471C1.93726 20.4851 1.80982 20.6531 1.64954 20.7809C1.59086 20.8278 1.51728 20.942 1.43565 20.9488C1.42735 20.9132 1.40445 20.8659 1.38945 20.8286C1.37312 20.7881 1.36235 20.7503 1.3488 20.7126L1.06085 20.0511C1.02693 19.9716 0.993247 19.9085 0.960147 19.8288C0.866997 19.6044 0.764697 19.3915 0.692957 19.1563C0.564547 18.7351 0.537037 18.5464 0.496427 18.0802C0.482857 17.9245 0.535007 17.9448 0.599487 17.8613L0.748197 17.6968C0.778307 17.6664 0.789397 17.6446 0.821377 17.6133L1.04699 17.3691C1.09182 17.3155 1.15691 17.2583 1.20806 17.2071L1.36159 17.0474C1.44906 16.9431 1.5546 16.8543 1.64213 16.7504L1.97683 16.3902C2.02141 16.3459 2.00686 16.3471 2.01611 16.2728C2.03381 16.1305 2.02901 15.9621 2.04819 15.8351C2.0713 15.682 2.06324 15.3858 2.08582 15.2364C2.10134 15.1338 2.09099 15.045 2.1027 14.9401L2.13053 14.4883C2.12991 14.4222 2.14029 14.3994 2.14078 14.3419C2.1416 14.2466 2.14897 14.1325 2.15857 14.0465C2.17098 13.9351 2.17202 13.7305 2.17954 13.5976C2.18552 13.4921 2.26746 13.436 1.84111 13.5137C1.75553 13.5292 1.66631 13.5499 1.58251 13.5585C1.49428 13.5676 1.41063 13.5857 1.32106 13.6005C1.28113 13.6071 1.23327 13.613 1.18408 13.6201C1.15169 13.6248 1.09392 13.6368 1.05389 13.6368C1.05389 13.5436 1.19185 13.2045 1.22722 13.1151C1.29491 12.944 1.33651 12.7751 1.40341 12.6061L1.58127 12.0988C1.65145 11.8874 1.7354 11.6831 1.82146 11.4776C1.83826 11.4375 1.85826 11.3918 1.87598 11.3559C2.03399 11.0361 2.13839 10.8254 2.37752 10.5654L2.40082 10.5397C2.40225 10.5383 2.40439 10.5364 2.40585 10.535L2.5906 10.3575C2.62438 10.3315 2.65281 10.3068 2.6904 10.2811C2.79473 10.2099 2.9111 10.1546 3.03003 10.1118C3.11345 10.0818 3.20243 10.0466 3.28682 10.0162C3.67742 9.8755 3.82024 9.73045 4.02551 9.38447C4.10959 9.24277 4.17962 9.07781 4.26397 8.93773C4.49844 8.54834 4.7827 8.19459 5.06296 7.83775C5.15032 7.72651 5.54165 7.25324 5.5664 7.14699C5.4177 6.92494 5.07698 6.68529 5.07698 6.53031C5.07698 6.41027 5.24252 6.23176 5.33391 6.1412C5.36282 6.11255 5.39033 6.08901 5.41543 6.05631C5.46363 5.99352 5.7946 5.67921 5.81525 5.66327C5.91268 5.58803 6.06032 5.42476 6.16442 5.33703L6.30792 5.20646C6.34083 5.17278 6.36476 5.15955 6.39617 5.12829L6.65293 4.89563C6.7338 4.82821 6.81295 4.73566 6.89198 4.67462L7.46537 4.14192C7.69712 3.96494 7.59033 3.96956 7.88066 4.19647C7.96625 4.26335 8.16759 4.46494 8.26803 4.46494C8.31312 4.46494 8.51789 4.32091 8.57715 4.28462C8.75667 4.17468 8.93206 4.05117 9.10576 3.93226C9.12697 3.91774 9.13269 3.91623 9.15466 3.90286L9.34871 3.77389C9.38456 3.74984 9.40868 3.73558 9.44458 3.71314C9.4808 3.69048 9.50708 3.66975 9.54467 3.64683C9.58248 3.62378 9.60529 3.60933 9.64038 3.58592C9.8656 3.43564 10.0977 3.28688 10.3368 3.15663C10.3734 3.13669 10.4012 3.12186 10.4371 3.10031C10.454 3.0901 10.4673 3.0794 10.4843 3.0692C10.6833 2.9495 10.6497 2.98933 10.8008 2.8278C11.0093 2.60483 11.1405 2.15782 11.3104 1.88866L11.4423 1.69756C11.503 1.61589 11.594 1.5218 11.6743 1.45977C11.9268 1.26484 12.1985 1.11793 12.4953 0.998384C12.5669 0.969504 12.6581 0.937714 12.7328 0.912954C13.1521 0.774074 14.1196 0.461434 14.5229 0.461434C14.5337 0.507924 14.523 0.520694 14.5092 0.574924L14.3787 1.17862C14.3631 1.26337 14.3369 1.33086 14.3369 1.42071C14.4434 1.42071 14.513 1.43049 14.6208 1.43049H16.6274C16.8624 1.43049 17.1203 1.41884 17.305 1.29559C17.3822 1.24408 17.5396 1.07508 17.6132 0.987124C17.7608 0.810534 17.9343 0.624534 18.1077 0.473404C18.1874 0.403904 18.251 0.356214 18.357 0.311604C18.5494 0.230634 18.6737 0.269854 18.8685 0.295524C19.2165 0.341384 19.6615 0.490974 19.9696 0.613804C20.2133 0.710964 20.4339 0.814844 20.6486 0.952744C21.0034 1.18051 21.0315 1.23584 20.8184 1.50049C20.7892 1.53674 20.7622 1.55836 20.7303 1.59836C20.6502 1.69869 20.3977 1.93166 20.2809 2.0397L20.0954 2.21646C19.9616 2.32832 19.8599 2.46485 19.7426 2.588C19.7116 2.62056 19.6031 2.75369 19.6031 2.80089C19.6031 2.86481 19.9384 3.22751 19.9961 3.29872C20.1104 3.43993 20.2229 3.58407 20.3197 3.73855C20.3853 3.8432 20.4388 3.95562 20.4871 4.07042C20.553 4.22715 20.6028 4.37584 20.6566 4.53715C20.6792 4.60477 20.6964 4.66203 20.7219 4.72636C20.7981 4.91894 20.8195 5.09317 21.0294 5.18241C21.302 5.29833 21.9602 5.08959 22.25 5.01702L22.7443 4.90451C22.9055 4.87212 23.0908 4.81732 23.264 4.81732C23.3314 4.81732 23.4278 5.16494 23.4391 5.22959C23.4795 5.46067 23.4585 5.5952 23.478 5.76824C23.4953 5.92298 23.4794 6.18756 23.4794 6.35412C23.4794 6.54621 23.5099 7.03575 23.4835 7.20985L23.4517 7.76532C23.4067 8.18736 23.3653 8.64335 23.2738 9.03618C23.2435 9.04324 23.2207 9.05075 23.1892 9.05919L22.9501 9.11378C22.2837 9.25175 21.624 9.36711 20.958 9.50032C20.8963 9.51267 20.8575 9.51881 20.7916 9.52967C20.5989 9.56145 20.6242 9.5391 20.5945 9.73389C20.5676 9.91033 20.5392 10.0747 20.492 10.248C20.4646 10.3487 20.4289 10.4603 20.3949 10.5621C20.3281 10.7615 20.2365 10.9496 20.1514 11.1408L20.0502 11.3528C20.0354 11.3803 20.0268 11.3885 20.0144 11.4149C20.008 11.4285 20.0035 11.4413 19.9961 11.4554C19.9915 11.4642 19.9849 11.4747 19.9784 11.4866L18.97 13.2484C18.8626 13.4418 18.5949 13.9063 18.5949 14.1066C18.5949 14.1456 18.6671 14.1845 18.6928 14.2045L19.2171 14.6297C19.2918 14.6878 19.3539 14.7447 19.4256 14.803L19.6347 14.9756C19.6718 15.008 19.7036 15.0338 19.7415 15.0645L20.149 15.4108C20.1724 15.4316 20.2394 15.4726 20.2394 15.5064C20.2394 15.5583 19.8104 16.0908 19.7389 16.1805C19.6419 16.3023 19.304 16.7263 19.2189 16.8156L18.6885 17.45C18.5757 17.5951 18.4432 17.7216 18.3292 17.864L17.7799 18.4697C17.7566 18.4929 17.7541 18.4987 17.735 18.5227C17.7191 18.5426 17.7056 18.5542 17.687 18.5726C17.5907 18.6672 17.5038 18.7754 17.4081 18.8712C17.376 18.9033 17.3382 18.9365 17.3113 18.9702L17.0264 19.2726C16.8805 19.4169 16.7381 19.5677 16.5814 19.6988L16.3805 19.8894C16.3133 19.9562 16.193 20.051 16.1146 20.1031C15.9509 20.2119 15.8962 20.2519 15.744 20.0997L15.6053 19.9447C15.5872 19.9215 15.5761 19.9141 15.559 19.8931C15.3573 19.6449 15.148 19.4016 14.9537 19.1476L14.3663 18.3842C14.3004 18.3996 14.1641 18.495 14.1039 18.5329C14.0166 18.5879 13.9395 18.6361 13.8534 18.6936C13.8286 18.7102 13.8098 18.7197 13.7874 18.7352L12.589 19.4848C12.5429 19.5128 12.5022 19.5328 12.4581 19.5594L12.1999 19.7025C12.1547 19.7278 12.1109 19.7499 12.0679 19.7761C12.023 19.8034 11.9815 19.8203 11.9346 19.8484C11.7785 19.9418 11.4145 20.1129 11.2424 20.1839C11.0696 20.2552 10.8983 20.329 10.7188 20.3847C10.5364 20.4413 10.1672 20.5431 9.97124 20.5475C9.97124 20.9243 9.76321 21.8036 9.67688 22.2206C9.65823 22.3107 9.63635 22.3984 9.61642 22.493C9.5369 22.8701 9.40262 23.4251 9.08063 23.5919C8.83335 23.7199 8.53975 23.7295 8.24813 23.7382C8.19625 23.7398 8.16323 23.7477 8.10195 23.7483V23.7483ZM5.06719 9.89757C5.06719 10.1547 5.14341 10.3454 5.25861 10.499C5.59681 10.9501 6.32501 10.6805 6.68226 10.4261L7.07147 10.1105C7.23454 9.96693 7.38535 9.79686 7.50659 9.61576C7.65434 9.39501 7.76882 9.17893 7.76882 8.85998C7.76882 8.74333 7.70971 8.60725 7.65387 8.54424C7.47067 8.3375 7.105 8.40227 6.91016 8.54948C6.82286 8.61545 6.74409 8.67946 6.67795 8.76754C6.65771 8.79447 6.64834 8.80801 6.6294 8.83646C6.59438 8.88905 6.57754 8.92239 6.5484 8.98059C6.50587 9.06552 6.44737 9.24516 6.44737 9.3592C6.44737 9.42306 6.5376 9.33645 6.55639 9.3214C6.66875 9.23139 6.77787 9.12617 6.89764 9.04596C6.92311 9.06302 6.94175 9.08331 6.96385 9.10701C6.97648 9.12054 6.98486 9.13062 6.99481 9.14456C7.01816 9.17731 7.0114 9.1483 7.0151 9.19279C6.93368 9.21453 6.21931 9.67806 6.07541 9.71158C6.07541 9.56689 6.09068 9.14061 6.12618 9.00864C6.14344 8.94448 6.17173 8.88553 6.20307 8.83103C6.35383 8.56878 6.60786 8.39171 6.85451 8.22954L7.26948 8.00825C7.29885 7.99519 7.32227 7.98036 7.35487 7.9664C7.47306 7.91578 7.5876 7.86779 7.71376 7.82608C7.84392 7.78305 7.96805 7.73606 8.10163 7.70494C8.10783 7.73154 8.1212 7.75865 8.12985 7.78439C8.25302 8.15092 8.30662 8.0894 8.40549 8.28204C8.53656 8.53736 8.28229 9.36809 8.31257 9.42407C8.32533 9.44765 8.36474 9.42976 8.38816 9.42094L8.9423 9.20144C9.32039 9.06538 9.25834 9.02044 9.5741 9.25712C9.68114 9.33736 9.96145 9.55021 9.96145 9.68222C9.96145 9.90106 9.86788 10.0265 9.76762 10.1736C9.63964 10.3614 9.4736 10.517 9.31296 10.6782C9.19818 10.7934 9.06728 10.888 8.94597 10.9964C8.91736 11.022 8.89978 11.0326 8.86917 11.0567C8.65074 11.2282 8.76619 11.1957 8.4974 11.233C8.26673 11.2651 7.99665 11.2697 7.78964 11.3475C7.63384 11.4061 7.60548 11.5047 7.5576 11.6734C7.40725 12.2033 7.31635 12.4179 6.98281 12.8116C6.96999 12.8268 6.96233 12.8317 6.94951 12.8468L6.62112 13.2036C6.53155 13.2932 6.44364 13.3962 6.3466 13.4773C6.24679 13.5607 6.15329 13.6487 6.04756 13.7264C5.80145 13.9072 5.66714 13.9402 5.33148 13.9402C5.03325 13.9402 4.8595 13.8973 4.69317 13.6486C4.53048 13.4054 4.54615 13.5069 4.65182 13.241C4.75716 12.976 5.16494 11.9336 5.53704 11.9336C5.821 11.9336 6.07818 12.3415 5.73577 12.4749C5.63633 12.5137 5.54236 12.5239 5.43699 12.5481C5.33662 12.5712 5.23898 12.5985 5.17704 12.6601C4.95083 12.8853 5.04835 13.2746 5.60556 13.2746C5.93921 13.2746 6.30033 13.0276 6.47883 12.7579C6.70647 12.414 6.80925 12.1676 6.88373 11.7533C6.91145 11.599 6.92701 11.429 6.92701 11.268C6.92701 11.2284 6.75938 11.1961 6.71722 11.1841C6.43126 11.1027 6.15751 11.0722 5.85027 11.0722C5.6264 11.0722 5.49566 11.136 5.35399 11.222C5.25418 11.2825 5.16613 11.3604 5.07552 11.4329C4.98175 11.508 4.83819 11.6684 4.75136 11.7548C4.719 11.787 4.70642 11.8102 4.67314 11.843C4.59212 11.9227 4.52491 12.0248 4.45277 12.112C4.32008 12.2726 4.1565 12.5026 4.05588 12.6842C3.83868 13.0763 3.54018 13.5226 3.54018 13.999C3.54018 14.2804 3.69023 14.5606 3.89946 14.7164C4.09549 14.8624 4.36571 14.9082 4.60805 14.9573C4.65171 14.9662 4.67538 14.9778 4.72459 14.9778V15.0072C4.67833 15.0195 4.62456 15.0925 4.59 15.1271L4.3122 15.3779C4.26093 15.4185 4.21768 15.4534 4.16386 15.4938C3.96985 15.6395 3.32677 16.0699 3.12881 15.6633C3.08813 15.5797 3.04956 15.4269 3.05056 15.301C3.05121 15.2176 3.04053 15.1766 3.0409 15.0953L3.06029 14.5664C3.06149 14.5173 3.06964 14.5124 3.07039 14.4591C3.07215 14.3307 3.09534 14.1758 3.10784 14.056C3.11553 13.9823 3.11989 13.9301 3.12963 13.8625C3.17452 13.5507 3.22374 13.2203 3.29734 12.9241C3.35556 12.6897 3.42029 12.4724 3.48771 12.2433C3.57658 11.9412 3.72294 11.5723 3.84212 11.2763C4.00629 10.8685 4.19535 10.4666 4.39178 10.0738C4.41648 10.0244 4.43807 9.98248 4.46589 9.93252C4.5966 9.69778 4.72261 9.45571 4.87152 9.23204C4.98845 9.0564 5.09454 8.86861 5.2168 8.69637C5.24755 8.65306 5.27395 8.60876 5.30207 8.56629L5.66842 8.05167C5.70061 8.00679 5.73077 7.96551 5.76522 7.92333C5.84756 7.8225 5.92015 7.71442 6.00926 7.61921L6.11219 7.5068C6.13902 7.48042 6.14324 7.47123 6.16639 7.44354C6.27121 7.31812 6.51122 7.1111 6.63883 7.03501C6.73602 6.97705 6.81833 6.92672 6.9557 6.91094C7.04666 6.90049 7.13085 6.91695 7.2072 6.96468C7.29377 7.01881 7.40664 7.23087 7.40664 7.32318C7.40664 7.38787 7.24089 7.38975 7.18553 7.40551C6.83163 7.50632 6.48206 7.72001 6.20484 7.96162C6.14832 8.01088 6.09644 8.05064 6.04358 8.10381C5.88855 8.25975 5.74461 8.41576 5.6069 8.58725C5.33412 8.9269 5.06719 9.44093 5.06719 9.89757V9.89757ZM19.4172 6.80439L19.3629 8.08136C19.2922 8.52585 19.1718 8.93083 19.0529 9.35714L18.8221 10.0758C18.7358 10.3903 18.3207 11.3667 18.1807 11.6466C18.1612 11.6854 18.1475 11.711 18.1292 11.7518C18.1097 11.7956 18.092 11.818 18.0733 11.8622C18.0423 11.9354 18.004 12.0027 17.9686 12.0707C17.9501 12.1063 17.9336 12.1312 17.9131 12.1719C17.9012 12.1956 17.897 12.2006 17.8845 12.2216L17.6162 12.6776C17.49 12.867 17.3623 13.0516 17.2073 13.2182C17.1887 13.2382 17.1892 13.2421 17.1727 13.2619C17.1595 13.2777 17.1487 13.287 17.134 13.3015C17.0565 13.3783 16.9768 13.4731 16.8932 13.5404C16.8342 13.5879 16.7765 13.642 16.709 13.6792C16.5537 13.7648 16.4006 13.7738 16.1674 13.7738C15.9114 13.7738 15.309 13.7994 15.095 13.7303C15.0154 13.7047 14.9833 13.6629 14.9571 13.5843C14.8157 13.1597 14.8459 13.3691 15.7203 12.9646C15.7608 12.9458 15.7762 12.9431 15.8131 12.9204L15.9943 12.8275C16.2806 12.6674 16.7847 12.3481 17.0265 12.1075C17.0564 12.0777 17.0658 12.069 17.0987 12.0427C17.1701 11.9857 17.2397 11.9017 17.3005 11.8333C17.4739 11.6381 17.6204 11.4198 17.7203 11.1761C17.7418 11.1235 17.727 11.117 17.7238 11.0625C17.7132 10.886 17.7233 10.7011 17.7238 10.524C17.7243 10.3044 17.7035 10.0746 17.7044 9.85819C17.7046 9.7982 17.6955 9.78241 17.6941 9.73147L17.6753 9.34889C17.6748 9.28791 17.6648 9.28594 17.6292 9.25795L16.7253 8.52717C16.6536 8.52717 16.5605 8.54904 16.4847 8.56067C16.2549 8.59594 15.7404 8.66476 15.5566 8.72884C15.4776 8.75635 15.4383 8.78062 15.3715 8.8178C15.0875 8.9758 14.6474 9.27729 14.39 9.48079C14.219 9.61597 13.9405 9.86199 13.8845 10.0814C13.8611 10.1729 13.8633 10.2147 13.8573 10.3283C13.8549 10.3747 13.8466 10.3967 13.847 10.4557C13.8474 10.5143 13.857 10.5271 13.8577 10.5824C13.86 10.7681 13.8536 10.943 13.8824 11.1058C13.9258 11.3523 14.1177 11.4093 14.3108 11.4996L14.4559 11.5602C14.5248 11.5885 14.522 11.5888 14.5983 11.5587C14.8257 11.4689 15.0584 11.3875 15.28 11.2811C15.3468 11.2491 15.396 11.2206 15.4593 11.1863C15.5358 11.145 15.6414 11.0757 15.6936 11.0096C15.7169 10.9801 15.733 10.9633 15.7524 10.9313C15.877 10.7246 15.7898 10.2597 15.6975 10.2597C15.632 10.2597 15.4282 10.3671 15.3764 10.3987C15.3252 10.4298 15.1117 10.5386 15.0515 10.5436C15.0515 10.4057 15.1226 10.0883 15.225 9.98299C15.3649 9.83902 15.5316 9.79765 15.7434 9.7673C15.893 9.74588 16.0269 9.73116 16.2065 9.73116C16.2914 10.0954 16.3827 10.1455 16.3827 10.6219C16.3827 10.8176 16.3362 10.9605 16.2332 11.0989C16.1673 11.1875 16.0136 11.3673 15.9348 11.4367C15.9124 11.4565 15.9038 11.4586 15.8809 11.4807L15.7702 11.5853C15.7447 11.605 15.7368 11.6171 15.7148 11.6376C15.6933 11.6576 15.6834 11.6616 15.6609 11.6816C15.4503 11.8692 15.2156 12.0167 14.9727 12.1583C14.885 12.2094 14.7786 12.2468 14.6404 12.2468C14.4537 12.2468 14.0357 12.2666 13.8687 12.2256C13.7646 12.2 13.6812 12.1501 13.5997 12.0835C13.5588 12.0501 13.5243 12.0269 13.4878 11.9898L13.2842 11.7921C13.2829 11.7906 13.2811 11.7883 13.2798 11.7868C13.0741 11.5401 13.1323 11.6342 12.935 11.319C12.8886 11.2448 12.9113 11.2374 12.9172 11.1502C12.9215 11.0878 12.9295 11.0192 12.9355 10.9629C12.9425 10.8971 12.9433 10.8396 12.9526 10.7744C12.973 10.6299 12.9959 10.3473 12.9959 10.201C12.8612 10.2122 12.5302 10.2873 12.3947 10.3144L11.9512 10.3995C11.9067 10.4071 11.8449 10.4262 11.7919 10.4262C11.7912 10.4262 11.6064 10.2644 11.5889 10.2474C11.4896 10.1508 11.3752 10.0698 11.2757 9.97325C11.1765 9.8769 11.0605 9.7965 10.9697 9.69201C11.027 9.60644 11.4604 9.20614 11.5447 9.12183C11.5687 9.09783 11.5885 9.07529 11.6133 9.05338L12.1368 8.55886C12.1648 8.53298 12.1816 8.52457 12.2104 8.49545L12.4405 8.28502C12.5234 8.20407 12.5135 8.22441 12.6631 8.22366C12.7419 8.22327 13.1684 8.25706 13.2129 8.23515C13.2263 8.22852 13.2786 8.18545 13.2965 8.172L13.6265 7.92446C13.6592 7.8994 13.6869 7.89293 13.6912 7.84235C13.7047 7.68488 13.6924 7.43973 13.6907 7.27409C13.6896 7.16372 13.7161 7.15642 13.7763 7.07578L14.0951 6.67024C14.1948 6.55134 14.3472 6.39145 14.4632 6.28468L14.6753 6.09545C14.9247 5.90057 15.1618 5.69201 15.4711 5.58929C15.8447 5.46522 16.485 5.49069 16.8562 5.6163C16.8937 5.62897 16.9148 5.63428 16.954 5.64582C16.9939 5.65757 17.0197 5.66977 17.0581 5.67871C17.0581 5.98436 17.0919 6.25553 16.9536 6.50409C16.8808 6.63498 16.7831 6.7504 16.6789 6.85583C16.5233 7.01318 16.3035 7.17636 16.0597 7.17636H15.5507V6.78482C15.5507 6.6171 15.7543 6.71851 15.8605 6.74907C15.9933 6.78728 16.1036 6.84355 16.2457 6.84355C16.264 6.77477 16.5589 6.47501 16.5589 6.30518C16.5589 6.19632 16.4748 6.12577 16.3895 6.08306C16.0145 5.89523 15.4301 6.09002 15.1396 6.29542C14.6589 6.63526 14.399 7.22503 14.3666 7.81289C14.3626 7.8851 14.3467 7.96344 14.3467 8.02796C14.4097 8.05819 14.5907 8.08275 14.6674 8.09881C15.0617 8.18136 15.1665 8.37056 15.6584 8.37056C15.9917 8.37056 16.2458 8.21407 16.5211 8.09783L16.6926 8.00502C16.843 7.92306 16.9681 7.82241 17.1043 7.72171C17.202 7.6494 17.303 7.56401 17.3886 7.47744C17.5039 7.36079 17.6207 7.24483 17.7225 7.11635C17.8141 7.00071 17.9054 6.88555 17.9824 6.75959L18.0828 6.59575C18.3409 6.16532 18.5971 5.42626 18.2356 4.94168C18.2168 4.91642 18.211 4.91049 18.1914 4.88803C18.1471 4.83722 18.1012 4.77935 18.0498 4.73594C17.9569 4.65743 17.9672 4.64926 17.8399 4.55438C17.686 4.4398 17.3892 4.48843 17.1364 4.47477L16.4023 4.42578C16.4375 4.37323 16.5619 4.26133 16.6152 4.20799C16.6894 4.13381 16.7564 4.06682 16.8305 3.99264C16.8688 3.95436 16.8999 3.92325 16.9382 3.88497C16.9755 3.84767 17.0044 3.79947 17.0573 3.78874L17.8159 3.68596C17.9372 3.66823 18.0881 3.65505 18.1799 3.7249C18.193 3.7349 18.1945 3.73651 18.2065 3.74723L18.6535 4.22033C18.7643 4.36529 18.8644 4.51321 18.9541 4.67351C19.0069 4.76794 19.0543 4.85746 19.1007 4.95757C19.2413 5.26079 19.3714 5.62694 19.388 5.96239C19.3901 6.00622 19.3975 6.00965 19.3979 6.0601C19.3993 6.2174 19.418 6.42648 19.4172 6.57919C19.4168 6.65423 19.4172 6.72934 19.4172 6.80439V6.80439ZM12.2128 6.17793C12.7073 6.13678 13.0573 6.017 13.3931 5.81163C13.4686 5.76543 13.5479 5.70915 13.6103 5.64709C13.6776 5.58008 13.7414 5.51985 13.7986 5.4438C13.9649 5.22244 14.0139 5.061 14.0139 4.75859C14.0139 4.20284 13.4487 4.25695 13.4178 4.46599C13.3999 4.5877 13.3943 4.7116 13.3514 4.81068C13.3095 4.90756 13.2438 4.97175 13.1585 5.02889C13.1039 5.06547 12.944 5.14386 12.8686 5.15013C12.8446 5.04703 12.8555 4.99452 12.8491 4.876C12.8465 4.8274 12.8389 4.80128 12.8392 4.73908C12.8412 4.35212 12.7984 4.55084 13.1935 4.31021C13.3126 4.23774 13.4418 4.18851 13.5669 4.12561C13.6066 4.10565 14.275 3.76023 14.3173 3.75037C14.3558 3.91533 14.4745 4.15472 14.5785 4.28205C14.6327 4.34833 14.6825 4.40291 14.6888 4.49478C14.7055 4.73865 14.6903 4.95965 14.5777 5.14616C14.5016 5.27202 14.4071 5.39492 14.3099 5.50489C14.2959 5.52076 14.2851 5.52851 14.2707 5.544L14.1583 5.66648C14.0417 5.78303 13.9274 5.90912 13.8014 6.01441C13.7856 6.02762 13.7763 6.03845 13.7618 6.0531L13.0925 6.62693C13.0576 6.6551 13.0491 6.67646 12.9868 6.67788C12.7984 6.68217 12.536 6.65872 12.3593 6.67679C12.3017 6.68268 12.2454 6.796 12.2113 6.84206L12.0184 7.10921C11.9545 7.19331 11.9558 7.25959 11.9722 7.368C11.9803 7.42169 11.9759 7.46334 11.9776 7.51928C11.9796 7.58858 12.0142 7.832 11.9893 7.88276C11.989 7.88329 11.9588 7.92316 11.9553 7.92712L11.6703 8.26858C11.5302 8.44764 11.1366 8.84644 10.9869 8.98491C10.967 9.00334 10.9628 9.00302 10.9432 9.0195C10.9263 9.03368 10.9196 9.04378 10.9035 9.05811C10.7202 9.22157 10.5699 9.25532 10.38 9.0875C10.2404 8.96416 10.138 8.80219 10.0359 8.64849C9.94618 8.5134 9.95435 8.5986 10.0582 8.27152C10.1028 8.13085 10.3012 7.53111 10.304 7.40149C10.2346 7.40149 10.0586 7.46646 10.0006 7.48959L9.50409 7.6791C9.43196 7.70885 9.38562 7.64334 9.31852 7.60394C9.11553 7.48471 8.93083 7.32492 8.83844 7.09538C8.75853 6.89683 8.79378 6.6193 8.85902 6.42631C9.01094 5.97687 9.27245 5.70841 9.67345 5.46902C9.97801 5.2872 10.4288 5.16971 10.7739 5.16971C10.8313 5.16971 10.7497 5.28611 10.7193 5.35982L10.5258 5.77321C10.4918 5.84393 10.4493 5.91467 10.4313 5.99194H10.1474C10.174 5.93655 10.1955 5.84263 10.2172 5.77785C10.2454 5.69376 10.2649 5.64812 10.2649 5.53188C10.115 5.49696 9.78934 5.78528 9.67468 5.88137C9.52193 6.00938 9.31541 6.29426 9.31541 6.49116C9.31541 6.56581 9.32492 6.64582 9.36679 6.70407C9.39115 6.73798 9.43124 6.77697 9.46845 6.79818C9.59006 6.86749 10.0653 6.84355 10.2257 6.84355C10.3615 6.84355 10.5346 6.73424 10.6287 6.65919C10.6538 6.63916 10.6622 6.62713 10.6915 6.60449C10.9841 6.37815 11.2877 5.78311 11.4255 5.4396C11.5218 5.19975 11.6014 4.94975 11.6358 4.69063C11.6453 4.61914 11.6646 4.55395 11.6646 4.47472C11.6009 4.45987 11.4835 4.38452 11.413 4.35443C11.3197 4.31463 11.2418 4.2731 11.1556 4.23001C10.9853 4.14482 11.0204 4.13362 10.8953 4.16544C10.4715 4.27325 10.0538 4.42485 9.677 4.65034C9.48233 4.76684 9.30124 4.90491 9.13179 5.05462C9.06456 5.11402 8.99659 5.17265 8.93807 5.24264L8.76573 5.45206C8.60182 5.67521 8.46522 5.92694 8.37192 6.19372C8.34042 6.28379 8.31469 6.40455 8.27782 6.48137C8.19018 6.47408 8.11381 6.36208 8.07017 6.29749C7.86535 5.99425 8.02983 5.63922 8.22461 5.39058L8.37984 5.21299C8.40328 5.18263 8.4378 5.14889 8.46804 5.12501L8.55437 5.04492C8.73138 4.867 9.01539 4.6879 9.22926 4.54519C9.62364 4.28205 9.85441 4.1829 10.2397 3.96988C10.3702 3.89772 10.5073 3.84001 10.6401 3.77322C10.9007 3.64218 11.1804 3.52039 11.4547 3.41317C11.4801 3.40324 11.487 3.4027 11.5132 3.39339L11.6952 3.32082C11.9836 3.21696 12.2701 3.09477 12.5652 3.00645L12.9531 2.8853C12.9981 2.87065 13.0355 2.85974 13.0805 2.84632C13.1271 2.83239 13.1699 2.82377 13.2125 2.8119C13.4822 2.73667 13.7472 2.68013 14.0236 2.61481C14.5779 2.48378 15.3392 2.41595 15.9087 2.51141C16.0053 2.52761 16.0643 2.5417 16.1466 2.56717C16.2111 2.58715 16.3162 2.633 16.3827 2.63448C16.3827 2.89639 16.4077 3.30068 16.3418 3.54308C16.2655 3.82407 15.9907 3.99212 15.7341 4.09036C15.6983 4.10404 15.5869 4.1389 15.5507 4.14192C15.5507 3.864 15.5717 3.56684 15.4669 3.31535C15.4428 3.25741 15.4161 3.2232 15.3804 3.17675C15.3547 3.14342 15.3482 3.14557 15.3188 3.12087C15.2907 3.09724 15.2878 3.0903 15.253 3.06921C15.1995 3.03683 15.1681 3.01645 15.0964 3.00065C14.7857 2.93214 14.2819 3.00204 14.0172 3.07827C13.6591 3.18137 13.3627 3.33446 13.087 3.56742C12.9578 3.67664 12.836 3.79224 12.7242 3.91915C12.7059 3.9399 12.6897 3.95259 12.6702 3.97287C12.5567 4.09071 12.4078 4.29121 12.3185 4.43355L11.9481 5.08117C11.9246 5.12166 11.9035 5.16527 11.8781 5.20698C11.8641 5.22994 11.857 5.24541 11.844 5.27087C11.7938 5.3691 11.8389 5.37259 11.8857 5.47722L12.2128 6.17793V6.17793Z" stroke="black" stroke-width="0.3" stroke-miterlimit="22.9256"/>
</svg>
