<svg width="24" height="24" viewBox="0 0 24 24" fill="none" xmlns="http://www.w3.org/2000/svg">
<g clip-path="url(#clip0_102_2)">
<path fill-rule="evenodd" clip-rule="evenodd" d="M10.7976 12.4321C10.9513 12.4321 11.5124 12.3263 11.6785 12.293C11.7534 12.278 11.7849 12.2584 11.8419 12.2976L12.0804 12.4692C12.2469 12.5921 12.3908 12.7387 12.5415 12.8781C12.5563 12.8918 12.5536 12.8899 12.5678 12.9018C12.5879 12.9185 12.6012 12.9283 12.6199 12.9497L12.6664 13.0032C12.8908 13.2446 12.8673 13.3845 12.8147 13.6992C12.8004 13.7853 12.7846 13.8754 12.7668 13.9612C12.7154 14.2089 12.6277 14.4436 12.5376 14.6721C12.416 14.98 12.1759 15.4324 11.955 15.6695C11.8772 15.7532 11.8075 15.8307 11.7148 15.8993C11.5223 16.0421 11.3657 16.0521 11.0776 16.0521C10.8676 16.0521 10.6576 16.0521 10.4476 16.0521C10.4308 15.8502 10.1401 15.5681 10.361 15.0755C10.4053 14.9765 10.4532 14.8818 10.5299 14.8044C10.6029 14.7306 10.6817 14.6698 10.7775 14.6219C10.8529 14.5842 11.0074 14.5221 11.1176 14.5221C11.1176 14.6718 10.9531 14.9135 10.866 15.0305C10.7376 15.2027 10.7845 15.3268 10.9405 15.4592C11.1231 15.6142 11.3282 15.5333 11.4746 15.3591C11.7332 15.0515 11.8952 14.6693 12.0433 14.2978C12.1744 13.9689 12.192 14.0582 12.0833 13.7863L11.9963 13.5733C11.9704 13.5019 11.9434 13.4314 11.9133 13.3563C11.8856 13.2872 11.8615 13.2063 11.8276 13.1421C11.5433 13.1421 11.3317 13.1649 11.0989 13.2334C10.9402 13.2801 10.7835 13.3341 10.6433 13.4178L10.1376 13.7721L9.8361 14.0806C9.69841 14.251 9.5784 14.4323 9.46801 14.6225C9.2221 15.0463 9.05757 15.6991 9.05757 16.2321C9.05757 16.4381 9.14958 16.6435 9.22698 16.7726C9.34751 16.9737 9.39163 17.014 9.53462 17.185L9.62208 17.2775C9.62367 17.2789 9.62598 17.2807 9.62757 17.2821C9.79692 17.4232 9.94617 17.5729 10.1814 17.6082C10.3844 17.6386 11.0039 17.616 11.1667 17.6012C11.5668 17.5648 12.0106 17.2812 12.3099 17.0144C12.4151 16.9206 12.5007 16.8337 12.6001 16.7346C12.6272 16.7075 12.6454 16.6911 12.6676 16.6621C12.6918 16.6303 12.7147 16.6139 12.7391 16.5835C12.9105 16.3695 13.0865 16.1563 13.2207 15.9151C13.2583 15.8475 13.2888 15.7999 13.3242 15.7287C13.5021 15.3713 13.6261 15.0897 13.7085 14.683C13.7131 14.6601 13.7152 14.6528 13.7202 14.6247C13.7441 14.4922 13.7191 14.5169 13.9312 14.5884C14.1763 14.671 14.2001 14.7138 14.3651 14.8745C14.4304 14.9382 14.4154 14.939 14.4081 15.0225L14.3973 15.2318C14.3978 15.3702 14.3787 15.51 14.3606 15.6351C14.3473 15.7266 14.3373 15.8018 14.3177 15.8822C14.2983 15.9615 14.2777 16.031 14.2556 16.1101C14.2361 16.1795 14.2023 16.2492 14.1747 16.3192C14.0954 16.5208 13.9157 16.7604 13.7652 16.9096C13.62 17.0536 13.4564 17.1755 13.2903 17.2948C13.2584 17.3177 13.2364 17.3355 13.2007 17.3552L11.9381 18.1026C11.9074 18.1202 11.8815 18.1352 11.8475 18.152C11.8105 18.1702 11.7893 18.1861 11.751 18.2055C11.6179 18.2731 11.5049 18.3393 11.3647 18.3992L10.9741 18.5786C10.3057 18.8759 8.96491 19.3121 8.24757 19.3121L7.33757 19.3221C7.25757 19.3221 7.17757 19.322 7.09757 19.3221C7.00521 19.3221 6.93749 19.3115 6.8578 19.3118C6.77767 19.3121 6.69735 19.3125 6.61723 19.3124L6.16895 19.2707C5.76149 19.2018 5.3109 18.9731 4.957 18.7626C4.85184 18.7001 4.76238 18.6376 4.66159 18.568C4.56528 18.5016 4.47369 18.4304 4.39025 18.3494L4.26507 18.2346C4.22203 18.1915 4.18077 18.1538 4.13994 18.1097L4.0298 17.9798C3.98972 17.9339 3.95581 17.8884 3.91839 17.8407C3.89228 17.8074 3.88521 17.8118 3.90017 17.7659L4.00382 17.4983C4.12888 17.12 4.1703 16.6641 4.36338 16.3879C4.43368 16.2873 4.77776 15.9576 4.88757 15.9321L4.89718 16.1024C4.8978 16.1642 4.90775 16.2072 4.90758 16.282C4.9072 16.4518 4.8959 17.3289 4.9084 17.4212C4.91567 17.475 5.01374 17.6145 5.0476 17.662C5.07334 17.6982 5.10057 17.7372 5.12745 17.7722C5.14215 17.7913 5.15305 17.8028 5.16768 17.8219C5.23724 17.913 5.30671 18 5.4032 18.0664C5.5238 18.1495 5.7618 18.1321 5.91757 18.1321C6.19332 18.1321 6.53954 18.0614 6.72436 17.9688C6.85651 17.9027 6.97393 17.8249 7.08888 17.7334C7.11106 17.7157 7.13465 17.6989 7.15515 17.6796C7.18262 17.6539 7.18951 17.6472 7.21905 17.6235C7.36861 17.5038 7.52194 17.3576 7.67887 17.2334C7.72626 17.1958 7.77056 17.1578 7.81746 17.1219L8.22864 16.7731C8.32263 16.6615 8.3962 16.569 8.45774 16.4322C8.52454 16.2837 8.55946 16.1277 8.5934 15.9579C8.6452 15.6988 8.71132 15.4343 8.79873 15.1932C8.87403 14.9855 8.85952 15.0195 8.8095 14.8201C8.77597 14.6865 8.75163 14.5482 8.7195 14.4201L8.55766 13.742C8.54811 13.7052 8.53609 13.6786 8.52757 13.6421C8.42782 13.6421 8.20774 13.6955 8.12626 13.7207C8.06678 13.7392 7.99828 13.7592 7.94601 13.7805C7.77766 13.8492 7.62884 13.9318 7.47753 14.032C7.37617 14.0991 7.18394 14.2628 7.08995 14.3644L6.97757 14.4921C6.90749 14.5836 6.83443 14.6674 6.76955 14.764C6.63234 14.9683 6.32778 15.6109 6.64149 15.8481C6.78142 15.9539 7.31757 15.9643 7.31757 15.8721C7.31757 15.7514 7.29788 15.6228 7.27156 15.5081C7.25817 15.4497 7.2057 15.2743 7.22686 15.232C7.27017 15.1456 7.47364 15.0939 7.56883 15.0633C7.68774 15.0251 7.67757 15.0143 7.67757 15.1421C7.67757 15.2479 7.68702 15.3657 7.67179 15.4663C7.62549 15.7722 7.75541 15.8353 7.43335 16.2478C7.22486 16.5149 6.94404 16.7421 6.56757 16.7421C6.41298 16.7421 6.18509 16.7453 6.0851 16.6445C5.94788 16.5063 5.95824 16.301 5.95754 16.112C5.95722 16.0272 5.96806 15.9849 5.96764 15.9021C5.96731 15.8392 5.96224 15.7436 5.9703 15.6848C5.97839 15.6258 5.97196 15.5419 5.98179 15.4763C5.99151 15.4113 5.9918 15.3497 6.00041 15.2849C6.00826 15.2257 6.02323 15.1595 6.03754 15.102C6.14217 14.6821 6.36816 14.2899 6.65994 13.9744L6.94052 13.705C6.96117 13.6875 6.97973 13.6735 7.00179 13.6563C7.39973 13.3456 7.83449 13.1441 8.33352 13.018C8.45276 12.9879 8.58402 12.9623 8.70757 12.9521C8.70757 12.8787 8.72266 12.7833 8.73318 12.7077C8.74518 12.6214 8.74988 12.5537 8.76186 12.4663C8.78495 12.2978 8.79926 12.1404 8.81936 11.9738C8.842 11.7863 8.86572 11.7297 8.99512 11.5996L9.25998 11.3145C9.35642 11.2169 9.51798 11.0874 9.61022 10.9947L9.7115 10.896C9.86666 10.7525 10.0126 10.5945 10.1746 10.4591C10.2506 10.3956 10.3147 10.3175 10.3976 10.2621L10.4541 10.3055C10.4555 10.3071 10.4574 10.3093 10.4587 10.3109C10.556 10.423 10.66 10.5304 10.7518 10.6478L10.9206 10.8491C11.1434 11.1121 11.1033 10.9752 11.0151 11.3896L10.9015 11.906C10.8872 11.9681 10.8758 12.0143 10.8634 12.0779C10.8428 12.183 10.7976 12.329 10.7976 12.4321V12.4321ZM8.0179 24.0021H7.99813C7.3031 23.9996 6.58951 24.0147 5.90934 23.9403L5.15589 23.8437C5.072 23.8323 5.00448 23.81 4.92757 23.7921C4.92757 23.6922 4.96977 23.556 4.99007 23.4546L5.12031 22.7848C5.12907 22.7336 5.14273 22.677 5.15336 22.6178L5.2751 21.9396C5.28685 21.882 5.29743 21.8236 5.30623 21.7707C5.32512 21.6571 5.34681 21.537 5.36473 21.4292C5.38349 21.3165 5.41757 21.1972 5.41757 21.0821L4.77701 20.6926C4.50902 20.532 4.22998 20.3884 3.9632 20.2264C3.72389 20.0811 3.47471 19.9493 3.23576 19.8039L3.07576 19.7139C3.04532 19.6953 3.02461 19.6857 2.99079 19.6688C2.8178 19.5827 2.84129 19.5525 2.71 19.6845C2.67437 19.7203 2.64581 19.7488 2.61007 19.7846C2.59189 19.8028 2.57888 19.8178 2.55999 19.8345C2.53707 19.8547 2.52827 19.8568 2.50487 19.8794L2.31527 20.0798C2.27988 20.1155 2.25078 20.1438 2.21507 20.1796L1.8729 20.5274C1.72002 20.6683 1.58983 20.8399 1.42608 20.9706C1.36613 21.0184 1.29097 21.1351 1.20757 21.1421C1.1991 21.1057 1.1757 21.0573 1.16037 21.0193C1.14369 20.9778 1.13269 20.9393 1.11885 20.9008L0.82468 20.2249C0.79002 20.1437 0.75562 20.0793 0.7218 19.9978C0.62664 19.7686 0.52213 19.5511 0.44884 19.3108C0.31765 18.8806 0.28955 18.6877 0.24806 18.2115C0.2342 18.0524 0.28748 18.0731 0.35335 17.9878L0.50527 17.8198C0.53603 17.7887 0.54736 17.7664 0.58003 17.7345L0.81052 17.485C0.85632 17.4302 0.92281 17.3718 0.97507 17.3196L1.13191 17.1564C1.22127 17.0498 1.32909 16.9591 1.41851 16.853L1.76044 16.4849C1.80599 16.4397 1.79113 16.4409 1.80057 16.3651C1.81865 16.2196 1.81375 16.0476 1.83335 15.9178C1.85696 15.7615 1.84872 15.4589 1.87179 15.3063C1.88764 15.2014 1.87707 15.1107 1.88903 15.0035L1.91747 14.542C1.91683 14.4745 1.92744 14.4511 1.92794 14.3924C1.92877 14.295 1.9363 14.1785 1.94611 14.0906C1.95879 13.9769 1.95985 13.7678 1.96754 13.632C1.97364 13.5242 2.05735 13.467 1.62179 13.5463C1.53437 13.5622 1.44322 13.5833 1.35761 13.5921C1.26747 13.6014 1.18201 13.6199 1.09051 13.635C1.04971 13.6417 1.00082 13.6478 0.95057 13.6551C0.91748 13.6598 0.85846 13.6721 0.81757 13.6721C0.81757 13.5768 0.95851 13.2305 0.99464 13.1391C1.06379 12.9643 1.10629 12.7918 1.17464 12.6191L1.35634 12.1008C1.42803 11.8848 1.5138 11.6762 1.60172 11.4662C1.61888 11.4252 1.63931 11.3786 1.65742 11.3419C1.81884 11.0152 1.92549 10.8 2.16979 10.5343L2.1936 10.5081C2.19506 10.5066 2.19724 10.5046 2.19873 10.5032L2.38748 10.322C2.42199 10.2953 2.45103 10.2701 2.48943 10.2439C2.59601 10.1711 2.7149 10.1146 2.8364 10.0709C2.92162 10.0402 3.01252 10.0043 3.09874 9.97323C3.49778 9.82952 3.64368 9.68133 3.85339 9.32788C3.93928 9.18312 4.01083 9.01459 4.097 8.87149C4.33653 8.47368 4.62694 8.11229 4.91325 7.74774C5.0025 7.6341 5.40228 7.15061 5.42757 7.04206C5.27566 6.81521 4.92757 6.57038 4.92757 6.41206C4.92757 6.28942 5.09669 6.10706 5.19005 6.01454C5.21959 5.98527 5.24769 5.96122 5.27333 5.92782C5.32258 5.86367 5.6607 5.54257 5.68179 5.52628C5.78133 5.44942 5.93216 5.28262 6.03851 5.193L6.18511 5.0596C6.21873 5.0252 6.24317 5.01168 6.27526 4.97975L6.53757 4.74206C6.62019 4.67318 6.70105 4.57863 6.78179 4.51628L7.36757 3.97206C7.60432 3.79126 7.49523 3.79598 7.79183 4.02779C7.87926 4.09612 8.08496 4.30206 8.18757 4.30206C8.23363 4.30206 8.44282 4.15492 8.50336 4.11785C8.68676 4.00553 8.86594 3.87936 9.04339 3.75788C9.06506 3.74304 9.07091 3.7415 9.09335 3.72784L9.29159 3.59608C9.32822 3.57151 9.35286 3.55695 9.38953 3.53402C9.42654 3.51087 9.45338 3.48969 9.49179 3.46628C9.53042 3.44273 9.55372 3.42797 9.58956 3.40405C9.81965 3.25053 10.0567 3.09855 10.301 2.96549C10.3384 2.94512 10.3669 2.92997 10.4035 2.90795C10.4208 2.89752 10.4343 2.88659 10.4517 2.87617C10.655 2.75388 10.6207 2.79457 10.7751 2.62955C10.9881 2.40177 11.122 1.9451 11.2956 1.67012L11.4304 1.47489C11.4924 1.39146 11.5854 1.29534 11.6675 1.23197C11.9253 1.03283 12.2029 0.882738 12.5061 0.760608C12.5794 0.731108 12.6724 0.698628 12.7488 0.673328C13.1772 0.531448 14.1656 0.212058 14.5776 0.212058C14.5886 0.259548 14.5777 0.272598 14.5635 0.327998L14.4302 0.944738C14.4143 1.03133 14.3876 1.10027 14.3876 1.19206C14.4964 1.19206 14.5675 1.20206 14.6776 1.20206H16.7276C16.9676 1.20206 17.2311 1.19015 17.4197 1.06424C17.4986 1.01162 17.6595 0.838968 17.7346 0.749108C17.8855 0.568698 18.0626 0.378678 18.2398 0.224288C18.3213 0.153288 18.3862 0.104568 18.4945 0.0589881C18.691 -0.0237319 18.818 0.0163381 19.0171 0.0425681C19.3726 0.0894181 19.8272 0.242238 20.1419 0.367718C20.3909 0.466978 20.6162 0.573098 20.8356 0.713978C21.1981 0.946678 21.2268 1.0032 21.0091 1.27357C20.9793 1.3106 20.9517 1.33269 20.9191 1.37355C20.8373 1.47605 20.5793 1.71405 20.4599 1.82443L20.2705 2.00501C20.1338 2.11928 20.0299 2.25876 19.9101 2.38457C19.8784 2.41784 19.7676 2.55384 19.7676 2.60206C19.7676 2.66736 20.1101 3.0379 20.169 3.11065C20.2858 3.25491 20.4007 3.40216 20.4996 3.55998C20.5666 3.66689 20.6212 3.78174 20.6706 3.89902C20.738 4.05914 20.7888 4.21104 20.8438 4.37583C20.8668 4.44492 20.8845 4.50341 20.9105 4.56913C20.9884 4.76587 21.0102 4.94387 21.2246 5.03503C21.5032 5.15346 22.1756 4.94021 22.4716 4.86607L22.9766 4.75113C23.1413 4.71804 23.3306 4.66206 23.5076 4.66206C23.5763 4.66206 23.6748 5.01719 23.6864 5.08323C23.7277 5.31931 23.7063 5.45674 23.7261 5.63352C23.7439 5.7916 23.7276 6.0619 23.7276 6.23206C23.7276 6.4283 23.7587 6.92842 23.7318 7.10628L23.6993 7.67375C23.6533 8.10491 23.6111 8.57075 23.5176 8.97206C23.4866 8.97928 23.4633 8.98695 23.4311 8.99557L23.1868 9.05134C22.506 9.19229 21.8321 9.31014 21.1517 9.44623C21.0886 9.45885 21.049 9.46512 20.9817 9.47622C20.7848 9.50868 20.8107 9.48585 20.7804 9.68485C20.7529 9.8651 20.7238 10.033 20.6756 10.2101C20.6476 10.3129 20.6112 10.4269 20.5764 10.5309C20.5082 10.7347 20.4146 10.9268 20.3277 11.1222L20.2243 11.3388C20.2091 11.3668 20.2004 11.3752 20.1877 11.4022C20.1812 11.416 20.1766 11.4291 20.169 11.4435C20.1643 11.4526 20.1575 11.4633 20.151 11.4755L19.1207 13.2752C19.011 13.4728 18.7376 13.9473 18.7376 14.1521C18.7376 14.1919 18.8113 14.2316 18.8376 14.2521L19.3732 14.6864C19.4495 14.7458 19.513 14.8039 19.5861 14.8635L19.7998 15.0398C19.8377 15.0729 19.8702 15.0993 19.909 15.1307L20.3252 15.4844C20.3491 15.5056 20.4176 15.5475 20.4176 15.5821C20.4176 15.635 19.9793 16.179 19.9063 16.2707C19.8071 16.3952 19.462 16.8283 19.3751 16.9195L18.8332 17.5677C18.718 17.7159 18.5825 17.8451 18.4661 17.9906L17.9049 18.6094C17.8811 18.6331 17.8786 18.639 17.8591 18.6635C17.8428 18.6839 17.829 18.6958 17.81 18.7145C17.7116 18.8111 17.6229 18.9217 17.5251 19.0196C17.4923 19.0523 17.4536 19.0862 17.4262 19.1207L17.1352 19.4296C16.9861 19.577 16.8407 19.7311 16.6805 19.865L16.4753 20.0597C16.4067 20.128 16.2837 20.2249 16.2036 20.2781C16.0365 20.3893 15.9806 20.4301 15.8251 20.2746L15.6833 20.1163C15.6649 20.0926 15.6535 20.085 15.6361 20.0635C15.43 19.81 15.2161 19.5614 15.0177 19.3019L14.4176 18.5221C14.3503 18.5377 14.211 18.6353 14.1495 18.674C14.0604 18.7301 13.9816 18.7793 13.8936 18.8381C13.8682 18.8551 13.849 18.8648 13.8262 18.8807L12.6019 19.6464C12.5548 19.675 12.5132 19.6954 12.4681 19.7226L12.2044 19.8689C12.1582 19.8947 12.1135 19.9172 12.0695 19.944C12.0236 19.9719 11.9813 19.9891 11.9333 20.0178C11.7739 20.1133 11.402 20.288 11.2261 20.3606C11.0497 20.4335 10.8747 20.5089 10.6913 20.5658C10.5049 20.6235 10.1278 20.7276 9.92757 20.7321C9.92757 21.117 9.71505 22.0153 9.62685 22.4413C9.6078 22.5334 9.58545 22.623 9.56509 22.7196C9.48385 23.1048 9.34667 23.6718 9.01772 23.8422C8.7651 23.973 8.46516 23.9828 8.16724 23.9917C8.11423 23.9933 8.0805 24.0015 8.0179 24.0021V24.0021ZM4.91757 9.85206C4.91757 10.1147 4.99544 10.3095 5.11313 10.4665C5.45863 10.9273 6.20257 10.6519 6.56754 10.392L6.96515 10.0696C7.13175 9.92292 7.28582 9.74918 7.40967 9.56416C7.56062 9.33865 7.67757 9.1179 7.67757 8.79206C7.67757 8.67289 7.61718 8.53387 7.56014 8.46949C7.37298 8.25829 6.99941 8.32446 6.80036 8.47485C6.71117 8.54224 6.6307 8.60764 6.56313 8.69762C6.54246 8.72513 6.53288 8.73897 6.51353 8.76803C6.47776 8.82175 6.46055 8.85582 6.43078 8.91527C6.38734 9.00204 6.32757 9.18556 6.32757 9.30206C6.32757 9.3673 6.41975 9.27882 6.43895 9.26344C6.55373 9.17149 6.66521 9.064 6.78757 8.98206C6.81359 8.99948 6.83263 9.02021 6.85521 9.04442C6.86811 9.05825 6.87667 9.06854 6.88684 9.08279C6.91069 9.11624 6.90379 9.08661 6.90757 9.13206C6.82439 9.15427 6.09458 9.62781 5.94757 9.66206C5.94757 9.51424 5.96317 9.07875 5.99944 8.94393C6.01707 8.87838 6.04598 8.81816 6.07799 8.76248C6.23201 8.49457 6.49153 8.31367 6.74351 8.148L7.16744 7.92193C7.19745 7.90858 7.22137 7.89343 7.25468 7.87917C7.37542 7.82746 7.49243 7.77843 7.62132 7.73582C7.75429 7.69186 7.8811 7.64385 8.01757 7.61206C8.0239 7.63924 8.03756 7.66693 8.0464 7.69323C8.17223 8.06768 8.22699 8.00483 8.328 8.20163C8.4619 8.46247 8.20213 9.31115 8.23307 9.36834C8.2461 9.39242 8.28637 9.37415 8.31029 9.36514L8.8764 9.14089C9.26266 9.00189 9.19927 8.95598 9.52185 9.19778C9.63121 9.27975 9.91757 9.4972 9.91757 9.63206C9.91757 9.85563 9.82198 9.98373 9.71955 10.134C9.58881 10.3259 9.41918 10.4849 9.25507 10.6496C9.13781 10.7672 9.00408 10.8639 8.88015 10.9746C8.85093 11.0007 8.83297 11.0116 8.80169 11.0362C8.57854 11.2114 8.69649 11.1782 8.42189 11.2164C8.18624 11.2491 7.91032 11.2539 7.69884 11.3333C7.53968 11.3931 7.5107 11.4939 7.46179 11.6663C7.30819 12.2076 7.21532 12.4268 6.87458 12.8291C6.86148 12.8445 6.85365 12.8496 6.84056 12.865L6.50507 13.2296C6.41357 13.3211 6.32376 13.4262 6.22462 13.5091C6.12266 13.5943 6.02714 13.6843 5.91912 13.7636C5.66769 13.9483 5.53048 13.9821 5.18757 13.9821C4.8829 13.9821 4.7054 13.9382 4.53547 13.6842C4.36926 13.4357 4.38528 13.5393 4.49323 13.2677C4.60084 12.9969 5.01744 11.9321 5.39757 11.9321C5.68767 11.9321 5.95041 12.3488 5.6006 12.4851C5.49901 12.5247 5.40301 12.5351 5.29536 12.5598C5.19282 12.5834 5.09307 12.6113 5.0298 12.6743C4.7987 12.9043 4.89832 13.3021 5.46757 13.3021C5.80843 13.3021 6.17735 13.0497 6.35971 12.7742C6.59227 12.4229 6.69727 12.1712 6.77336 11.7478C6.80168 11.5902 6.81757 11.4166 6.81757 11.2521C6.81757 11.2117 6.64632 11.1786 6.60325 11.1664C6.31111 11.0832 6.03145 11.0521 5.71757 11.0521C5.48886 11.0521 5.3553 11.1172 5.21057 11.2051C5.1086 11.2669 5.01865 11.3465 4.92608 11.4206C4.83029 11.4972 4.68363 11.6612 4.59492 11.7494C4.56186 11.7823 4.54901 11.806 4.51501 11.8395C4.43224 11.9209 4.36357 12.0252 4.28988 12.1144C4.15432 12.2784 3.98721 12.5133 3.88441 12.6989C3.66252 13.0994 3.35757 13.5554 3.35757 14.0421C3.35757 14.3296 3.51086 14.6158 3.72461 14.775C3.92488 14.9242 4.20094 14.9709 4.44851 15.0211C4.49312 15.0302 4.5173 15.0421 4.56757 15.0421V15.0721C4.52031 15.0847 4.46538 15.1592 4.43007 15.1946L4.14627 15.4508C4.09389 15.4923 4.04971 15.5279 3.99472 15.5692C3.79653 15.7181 3.13955 16.1577 2.93731 15.7423C2.89575 15.657 2.85635 15.5009 2.85737 15.3723C2.85804 15.2871 2.84712 15.2452 2.8475 15.1621L2.86731 14.6218C2.86854 14.5716 2.87687 14.5666 2.87763 14.5121C2.87943 14.381 2.90312 14.2227 2.91589 14.1004C2.92375 14.025 2.9282 13.9717 2.93815 13.9026C2.98401 13.5841 3.0343 13.2466 3.10948 12.944C3.16896 12.7046 3.23509 12.4826 3.30397 12.2485C3.39476 11.9399 3.54428 11.563 3.66604 11.2605C3.83375 10.8439 4.0269 10.4334 4.22757 10.0321C4.2528 9.9816 4.27486 9.93881 4.30328 9.88777C4.43682 9.64796 4.56555 9.40066 4.71767 9.17216C4.83713 8.99272 4.94551 8.80087 5.07042 8.62491C5.10183 8.58067 5.1288 8.53541 5.15753 8.49202L5.53179 7.96628C5.56468 7.92043 5.59549 7.87826 5.63068 7.83517C5.7148 7.73216 5.78896 7.62175 5.87999 7.52448L5.98515 7.40964C6.01256 7.38269 6.01687 7.3733 6.04052 7.34501C6.14761 7.21689 6.3928 7.00539 6.52317 6.92766C6.62246 6.86845 6.70655 6.81703 6.84688 6.80091C6.93981 6.79023 7.02582 6.80705 7.10382 6.85581C7.19226 6.91111 7.30757 7.12775 7.30757 7.22206C7.30757 7.28814 7.13823 7.29006 7.08168 7.30617C6.72013 7.40915 6.36301 7.62746 6.0798 7.87429C6.02206 7.92461 5.96906 7.96523 5.91506 8.01955C5.75668 8.17886 5.60963 8.33824 5.46894 8.51343C5.19027 8.86042 4.91757 9.38556 4.91757 9.85206V9.85206ZM19.5776 6.69206L19.5221 7.99662C19.4499 8.45071 19.3269 8.86444 19.2055 9.29996L18.9696 10.0341C18.8815 10.3554 18.4574 11.3529 18.3144 11.6388C18.2945 11.6785 18.2805 11.7046 18.2618 11.7463C18.2418 11.7911 18.2238 11.8139 18.2047 11.8592C18.173 11.9339 18.1339 12.0026 18.0977 12.0722C18.0788 12.1085 18.062 12.1339 18.041 12.1755C18.0288 12.1998 18.0246 12.2048 18.0118 12.2263L17.7377 12.6922C17.6088 12.8857 17.4783 13.0742 17.3199 13.2444C17.3009 13.2649 17.3015 13.2689 17.2846 13.2891C17.2711 13.3053 17.2601 13.3147 17.2451 13.3296C17.1659 13.408 17.0845 13.5048 16.9991 13.5736C16.9388 13.6221 16.8798 13.6773 16.8109 13.7154C16.6523 13.8028 16.4958 13.8121 16.2576 13.8121C15.9961 13.8121 15.3807 13.8381 15.162 13.7676C15.0807 13.7414 15.0479 13.6987 15.0212 13.6185C14.8767 13.1846 14.9075 13.3986 15.8009 12.9853C15.8423 12.9662 15.858 12.9634 15.8957 12.9402L16.0808 12.8453C16.3733 12.6818 16.8883 12.3555 17.1353 12.1097C17.1658 12.0793 17.1754 12.0704 17.2091 12.0435C17.282 11.9853 17.3531 11.8995 17.4152 11.8297C17.5924 11.6302 17.742 11.4072 17.844 11.1582C17.866 11.1045 17.8509 11.0979 17.8476 11.0422C17.8368 10.8619 17.8472 10.673 17.8476 10.492C17.8481 10.2677 17.8269 10.0329 17.8278 9.81183C17.8281 9.75055 17.8187 9.73442 17.8172 9.68238L17.7981 9.29153C17.7975 9.22923 17.7873 9.22722 17.751 9.19863L16.8276 8.45206C16.7543 8.45206 16.6592 8.4744 16.5818 8.48628C16.347 8.52231 15.8214 8.59262 15.6336 8.65808C15.5529 8.68619 15.5128 8.71098 15.4445 8.74897C15.1544 8.91038 14.7047 9.21838 14.4418 9.42628C14.2671 9.56438 13.9826 9.81571 13.9253 10.0398C13.9015 10.1333 13.9037 10.176 13.8976 10.2921C13.8951 10.3395 13.8867 10.3619 13.8871 10.4223C13.8875 10.4821 13.8973 10.4952 13.898 10.5517C13.9003 10.7414 13.8938 10.92 13.9232 11.0864C13.9676 11.3382 14.1637 11.3965 14.3609 11.4887L14.5091 11.5506C14.5795 11.5795 14.5767 11.5799 14.6546 11.5491C14.887 11.4573 15.1246 11.3742 15.351 11.2655C15.4193 11.2328 15.4695 11.2036 15.5342 11.1687C15.6123 11.1264 15.7202 11.0556 15.7736 10.9881C15.7973 10.958 15.8139 10.9408 15.8336 10.9081C15.9609 10.6969 15.8718 10.2221 15.7776 10.2221C15.7106 10.2221 15.5024 10.3318 15.4495 10.364C15.3972 10.3958 15.1791 10.5069 15.1176 10.5121C15.1176 10.3711 15.1902 10.0469 15.2948 9.93933C15.4378 9.79225 15.6081 9.74998 15.8245 9.71898C15.9773 9.6971 16.114 9.68206 16.2976 9.68206C16.3843 10.0541 16.4776 10.1053 16.4776 10.5921C16.4776 10.7919 16.43 10.9379 16.3248 11.0793C16.2575 11.1699 16.1005 11.3536 16.02 11.4245C15.9971 11.4447 15.9883 11.4468 15.9649 11.4694L15.8518 11.5763C15.8258 11.5963 15.8177 11.6087 15.7952 11.6297C15.7732 11.6501 15.7631 11.6542 15.7401 11.6746C15.525 11.8663 15.2852 12.017 15.0371 12.1616C14.9475 12.2139 14.8388 12.2521 14.6976 12.2521C14.5069 12.2521 14.0799 12.2723 13.9093 12.2304C13.8029 12.2042 13.7177 12.1532 13.6344 12.0852C13.5927 12.0511 13.5574 12.0274 13.5201 11.9895L13.3121 11.7875C13.3107 11.786 13.3089 11.7836 13.3076 11.7821C13.0975 11.5301 13.157 11.6262 12.9554 11.3042C12.908 11.2284 12.9311 11.2208 12.9372 11.1317C12.9416 11.068 12.9497 10.998 12.9559 10.9404C12.963 10.8732 12.9639 10.8144 12.9733 10.7478C12.9942 10.6003 13.0176 10.3115 13.0176 10.1621C12.88 10.1735 12.5418 10.2502 12.4034 10.2779L11.9503 10.3648C11.9048 10.3726 11.8418 10.3921 11.7876 10.3921C11.7868 10.3921 11.5981 10.2268 11.5802 10.2094C11.4788 10.1107 11.3618 10.028 11.2602 9.92938C11.1589 9.83095 11.0404 9.74881 10.9476 9.64206C11.0061 9.55464 11.4489 9.1457 11.5351 9.05956C11.5596 9.03505 11.5797 9.01202 11.6051 8.98964L12.1399 8.48443C12.1685 8.45799 12.1857 8.4494 12.2152 8.41965L12.4502 8.20467C12.5349 8.12198 12.5247 8.14276 12.6776 8.14199C12.7581 8.14159 13.1938 8.17611 13.2392 8.15373C13.253 8.14696 13.3064 8.10295 13.3247 8.08921L13.6618 7.83633C13.6952 7.81072 13.7235 7.80411 13.7279 7.75244C13.7417 7.59157 13.7291 7.34112 13.7274 7.1719C13.7263 7.05915 13.7533 7.05169 13.8148 6.96931L14.1405 6.55501C14.2424 6.43354 14.3981 6.2702 14.5166 6.16112L14.7333 5.9678C14.988 5.76871 15.2302 5.55564 15.5462 5.45071C15.9279 5.32396 16.5821 5.34998 16.9613 5.4783C16.9996 5.49124 17.0211 5.49667 17.0612 5.50846C17.1019 5.52046 17.1283 5.53292 17.1676 5.54206C17.1676 5.85431 17.202 6.13134 17.0608 6.38527C16.9864 6.51899 16.8866 6.6369 16.7801 6.74461C16.6212 6.90536 16.3966 7.07206 16.1476 7.07206H15.6276V6.67206C15.6276 6.50072 15.8356 6.60432 15.9441 6.63554C16.0798 6.67458 16.1925 6.73206 16.3376 6.73206C16.3563 6.6618 16.6576 6.35556 16.6576 6.18206C16.6576 6.07085 16.5716 5.99877 16.4845 5.95514C16.1014 5.76326 15.5044 5.96225 15.2076 6.17209C14.7165 6.51927 14.451 7.12179 14.4179 7.72235C14.4138 7.79612 14.3976 7.87615 14.3976 7.94206C14.4619 7.97294 14.6468 7.99803 14.7252 8.01444C15.128 8.09878 15.2351 8.29206 15.7376 8.29206C16.0781 8.29206 16.3377 8.13219 16.6189 8.01344L16.7941 7.91863C16.9478 7.8349 17.0756 7.73207 17.2147 7.6292C17.3146 7.55532 17.4177 7.46809 17.5052 7.37965C17.623 7.26048 17.7423 7.14201 17.8463 7.01076C17.9399 6.89262 18.0331 6.77497 18.1118 6.64629L18.2144 6.47891C18.4781 6.03918 18.7398 5.28415 18.3705 4.7891C18.3513 4.7633 18.3454 4.75724 18.3253 4.73429C18.28 4.68239 18.2332 4.62327 18.1807 4.57892C18.0858 4.49871 18.0963 4.49036 17.9662 4.39344C17.809 4.27638 17.5058 4.32606 17.2475 4.31211L16.4976 4.26206C16.5335 4.20837 16.6606 4.09405 16.7151 4.03956C16.7908 3.96378 16.8593 3.89534 16.9351 3.81956C16.9742 3.78045 17.006 3.74867 17.0451 3.70956C17.0832 3.67146 17.1127 3.62222 17.1668 3.61125L17.9418 3.50625C18.0657 3.48814 18.2198 3.47468 18.3136 3.54604C18.327 3.55625 18.3285 3.5579 18.3408 3.56885L18.7975 4.05217C18.9106 4.20026 19.0129 4.35138 19.1045 4.51514C19.1584 4.61161 19.2069 4.70307 19.2543 4.80534C19.3979 5.11511 19.5308 5.48917 19.5478 5.83187C19.55 5.87664 19.5575 5.88015 19.5579 5.93169C19.5593 6.09238 19.5784 6.30598 19.5776 6.46199C19.5772 6.53865 19.5776 6.61539 19.5776 6.69206V6.69206ZM12.2176 6.05206C12.7228 6.01002 13.0803 5.88766 13.4234 5.67785C13.5005 5.63065 13.5815 5.57315 13.6453 5.50975C13.714 5.4413 13.7792 5.37977 13.8376 5.30207C14.0075 5.07593 14.0576 4.911 14.0576 4.60206C14.0576 4.0343 13.4802 4.08958 13.4486 4.30314C13.4303 4.42748 13.4246 4.55405 13.3808 4.65527C13.3379 4.75425 13.2708 4.81982 13.1837 4.8782C13.1279 4.91557 12.9646 4.99565 12.8876 5.00206C12.863 4.89673 12.8742 4.84309 12.8676 4.72201C12.8649 4.67235 12.8572 4.64567 12.8575 4.58213C12.8595 4.18681 12.8158 4.38982 13.2195 4.14399C13.3411 4.06995 13.4731 4.01966 13.6009 3.9554C13.6415 3.93501 14.3243 3.58213 14.3676 3.57206C14.4068 3.74058 14.5282 3.98514 14.6344 4.11522C14.6897 4.18293 14.7407 4.23869 14.7471 4.33255C14.7641 4.58169 14.7486 4.80746 14.6335 4.998C14.5558 5.12658 14.4593 5.25214 14.36 5.36448C14.3457 5.38069 14.3347 5.38861 14.3199 5.40444L14.2051 5.52956C14.086 5.64863 13.9692 5.77744 13.8405 5.88501C13.8244 5.89851 13.8149 5.90957 13.8 5.92454L13.1163 6.51076C13.0806 6.53954 13.072 6.56136 13.0083 6.56281C12.8158 6.5672 12.5477 6.54324 12.3672 6.5617C12.3084 6.56772 12.2508 6.68348 12.216 6.73054L12.019 7.00346C11.9536 7.08938 11.955 7.15709 11.9718 7.26784C11.9801 7.32269 11.9755 7.36524 11.9772 7.42239C11.9793 7.49319 12.0147 7.74187 11.9892 7.79373C11.989 7.79427 11.9581 7.835 11.9545 7.83904L11.6634 8.18788C11.5202 8.37081 11.1181 8.77822 10.9652 8.91969C10.9448 8.93852 10.9405 8.93819 10.9205 8.95502C10.9033 8.96951 10.8964 8.97983 10.88 8.99447C10.6927 9.16146 10.5391 9.19594 10.3451 9.02449C10.2026 8.89849 10.0979 8.73302 9.99363 8.576C9.90197 8.43799 9.91032 8.52503 10.0164 8.19088C10.062 8.04717 10.2646 7.43448 10.2676 7.30206C10.1966 7.30206 10.0168 7.36843 9.95757 7.39206L9.45033 7.58566C9.37664 7.61606 9.3293 7.54913 9.26075 7.50888C9.05337 7.38708 8.86468 7.22383 8.7703 6.98933C8.68866 6.78649 8.72467 6.50297 8.79132 6.30581C8.94653 5.84666 9.21369 5.5724 9.62335 5.32784C9.93449 5.14209 10.395 5.02206 10.7476 5.02206C10.8062 5.02206 10.7229 5.14098 10.6918 5.21628L10.4941 5.6386C10.4594 5.71085 10.416 5.78312 10.3976 5.86206H10.1076C10.1347 5.80547 10.1567 5.70952 10.1788 5.64334C10.2076 5.55743 10.2276 5.51081 10.2276 5.39206C10.0744 5.35638 9.74174 5.65093 9.62461 5.7491C9.46856 5.87987 9.25757 6.1709 9.25757 6.37206C9.25757 6.44832 9.26729 6.53006 9.31006 6.58957C9.33495 6.62421 9.37591 6.66405 9.41392 6.68571C9.53816 6.75652 10.0237 6.73206 10.1876 6.73206C10.3262 6.73206 10.5031 6.62039 10.5992 6.54372C10.6249 6.52326 10.6334 6.51097 10.6633 6.48784C10.9623 6.25661 11.2725 5.64871 11.4133 5.29778C11.5116 5.05275 11.593 4.79735 11.6281 4.53263C11.6378 4.4596 11.6576 4.393 11.6576 4.31206C11.5924 4.29688 11.4725 4.21991 11.4005 4.18917C11.3052 4.14851 11.2256 4.10608 11.1376 4.06206C10.9635 3.97503 10.9994 3.96359 10.8716 3.99609C10.4386 4.10623 10.0119 4.26111 9.62698 4.49147C9.4281 4.61049 9.2431 4.75154 9.06999 4.90448C9.0013 4.96517 8.93187 5.02506 8.87208 5.09657L8.69602 5.31051C8.52857 5.53848 8.38902 5.79565 8.2937 6.06819C8.26152 6.16021 8.23523 6.28358 8.19757 6.36206C8.10803 6.35461 8.03001 6.24019 7.98543 6.1742C7.77619 5.86441 7.94422 5.50171 8.14321 5.2477L8.30179 5.06628C8.32574 5.03526 8.361 5.00079 8.3919 4.97639L8.48009 4.89457C8.66093 4.71281 8.95107 4.52984 9.16956 4.38405C9.57246 4.11522 9.80822 4.01393 10.2018 3.79631C10.3351 3.72259 10.4752 3.66363 10.6109 3.5954C10.8772 3.46153 11.1628 3.33711 11.4431 3.22757C11.469 3.21743 11.4761 3.21687 11.5029 3.20736L11.6887 3.13323C11.9834 3.02712 12.2761 2.90229 12.5776 2.81206L12.9738 2.6883C13.0198 2.67333 13.058 2.66219 13.104 2.64847C13.1516 2.63424 13.1953 2.62544 13.2388 2.61331C13.5144 2.53646 13.7851 2.47869 14.0675 2.41196C14.6338 2.2781 15.4115 2.20881 15.9933 2.30633C16.092 2.32288 16.1522 2.33727 16.2363 2.36329C16.3023 2.3837 16.4096 2.43055 16.4776 2.43206C16.4776 2.69963 16.5031 3.11265 16.4358 3.36029C16.3578 3.64735 16.0771 3.81903 15.8149 3.91939C15.7784 3.93337 15.6646 3.96898 15.6276 3.97206C15.6276 3.68814 15.6491 3.38456 15.542 3.12764C15.5173 3.06845 15.4901 3.0335 15.4536 2.98604C15.4274 2.95199 15.4207 2.95419 15.3907 2.92896C15.3619 2.90481 15.359 2.89772 15.3234 2.87618C15.2688 2.8431 15.2367 2.82228 15.1635 2.80614C14.846 2.73615 14.3313 2.80756 14.0609 2.88543C13.6951 2.99076 13.3923 3.14716 13.1107 3.38515C12.9786 3.49673 12.8542 3.61483 12.74 3.74448C12.7213 3.76568 12.7048 3.77865 12.6849 3.79936C12.5689 3.91975 12.4168 4.12458 12.3255 4.27L11.9471 4.93161C11.9231 4.97297 11.9016 5.01752 11.8756 5.06013C11.8613 5.08359 11.8541 5.0994 11.8408 5.12541C11.7895 5.22576 11.8356 5.22932 11.8834 5.33621L12.2176 6.05206V6.05206Z" fill="white"/>
</g>
<defs>
<clipPath id="clip0_102_2">
<rect width="24" height="24" fill="white"/>
</clipPath>
</defs>
</svg>
